<mxfile host="app.diagrams.net" modified="2023-03-07T01:28:45.174Z" agent="5.0 (Windows)" etag="CzqeDKYGshP3kyC2ZugC" version="21.0.2" type="github">
  <diagram id="wFE0QG_FPsp0jaGvCLVb" name="Page-1">
    <mxGraphModel dx="2924" dy="1114" grid="1" gridSize="10" guides="1" tooltips="1" connect="1" arrows="1" fold="1" page="1" pageScale="1" pageWidth="850" pageHeight="1100" math="0" shadow="0">
      <root>
        <mxCell id="0" />
        <mxCell id="1" parent="0" />
        <mxCell id="_5mSTuPxr-ZiKRkBDSY7-1" value="" style="swimlane;fontStyle=2;childLayout=stackLayout;horizontal=1;startSize=28;horizontalStack=1;resizeParent=1;resizeParentMax=0;resizeLast=0;collapsible=0;marginBottom=0;swimlaneFillColor=none;fontFamily=Permanent Marker;fontSize=16;points=[];verticalAlign=top;stackBorder=0;resizable=1;strokeWidth=2;sketch=1;disableMultiStroke=1;" parent="1" vertex="1">
          <mxGeometry x="160" y="280" width="550" height="510" as="geometry" />
        </mxCell>
        <object label="逻辑层" status="New" id="_5mSTuPxr-ZiKRkBDSY7-2">
          <mxCell style="swimlane;strokeWidth=2;fontFamily=Permanent Marker;html=0;startSize=1;verticalAlign=bottom;spacingBottom=5;points=[];childLayout=stackLayout;stackBorder=20;stackSpacing=20;resizeLast=0;resizeParent=1;horizontalStack=0;collapsible=0;sketch=1;strokeColor=none;fillStyle=solid;fillColor=#A0522D;" parent="_5mSTuPxr-ZiKRkBDSY7-1" vertex="1">
            <mxGeometry y="28" width="190" height="482" as="geometry" />
          </mxCell>
        </object>
        <mxCell id="rKU_MBx8V3sZhzBJ1b0n-2" value="sentry" style="rounded=0;whiteSpace=wrap;html=1;" vertex="1" parent="_5mSTuPxr-ZiKRkBDSY7-2">
          <mxGeometry x="20" y="21" width="150" height="60" as="geometry" />
        </mxCell>
        <mxCell id="rKU_MBx8V3sZhzBJ1b0n-49" value="sonliOpenApi&lt;br&gt;" style="rounded=0;whiteSpace=wrap;html=1;" vertex="1" parent="_5mSTuPxr-ZiKRkBDSY7-2">
          <mxGeometry x="20" y="101" width="150" height="60" as="geometry" />
        </mxCell>
        <object label="业务层" status="In progress" id="_5mSTuPxr-ZiKRkBDSY7-6">
          <mxCell style="swimlane;strokeWidth=2;fontFamily=Permanent Marker;html=0;startSize=1;verticalAlign=bottom;spacingBottom=5;points=[];childLayout=stackLayout;stackBorder=20;stackSpacing=20;resizeLast=0;resizeParent=1;horizontalStack=0;collapsible=0;sketch=1;strokeColor=none;fillStyle=solid;fillColor=#006600;" parent="_5mSTuPxr-ZiKRkBDSY7-1" vertex="1">
            <mxGeometry x="190" y="28" width="180" height="482" as="geometry" />
          </mxCell>
        </object>
        <mxCell id="rKU_MBx8V3sZhzBJ1b0n-3" value="&lt;p class=&quot;project-title qa-project-name&quot;&gt;&lt;font style=&quot;font-size: 12px;&quot;&gt;Parking.IntelligentParking&lt;br&gt;&lt;/font&gt;&lt;/p&gt;" style="rounded=0;whiteSpace=wrap;html=1;" vertex="1" parent="_5mSTuPxr-ZiKRkBDSY7-6">
          <mxGeometry x="20" y="21" width="140" height="60" as="geometry" />
        </mxCell>
        <object label="存储层" status="Completed" id="_5mSTuPxr-ZiKRkBDSY7-9">
          <mxCell style="swimlane;strokeWidth=2;fontFamily=Permanent Marker;html=0;startSize=1;verticalAlign=bottom;spacingBottom=5;points=[];childLayout=stackLayout;stackBorder=20;stackSpacing=20;resizeLast=0;resizeParent=1;horizontalStack=0;collapsible=0;sketch=1;strokeColor=none;fillStyle=solid;fillColor=#1BA1E2;" parent="_5mSTuPxr-ZiKRkBDSY7-1" vertex="1">
            <mxGeometry x="370" y="28" width="180" height="482" as="geometry" />
          </mxCell>
        </object>
        <mxCell id="rKU_MBx8V3sZhzBJ1b0n-4" value="&lt;p class=&quot;project-title qa-project-name&quot;&gt;SearchSynchroPlatform&lt;br/&gt;&lt;/p&gt;" style="rounded=0;whiteSpace=wrap;html=1;" vertex="1" parent="_5mSTuPxr-ZiKRkBDSY7-9">
          <mxGeometry x="20" y="21" width="140" height="60" as="geometry" />
        </mxCell>
        <mxCell id="rKU_MBx8V3sZhzBJ1b0n-6" value="" style="edgeStyle=orthogonalEdgeStyle;rounded=0;orthogonalLoop=1;jettySize=auto;html=1;" edge="1" parent="_5mSTuPxr-ZiKRkBDSY7-1" source="rKU_MBx8V3sZhzBJ1b0n-2" target="rKU_MBx8V3sZhzBJ1b0n-3">
          <mxGeometry relative="1" as="geometry" />
        </mxCell>
        <mxCell id="rKU_MBx8V3sZhzBJ1b0n-7" value="" style="edgeStyle=orthogonalEdgeStyle;rounded=0;orthogonalLoop=1;jettySize=auto;html=1;" edge="1" parent="_5mSTuPxr-ZiKRkBDSY7-1" source="rKU_MBx8V3sZhzBJ1b0n-3" target="rKU_MBx8V3sZhzBJ1b0n-4">
          <mxGeometry relative="1" as="geometry" />
        </mxCell>
        <mxCell id="rKU_MBx8V3sZhzBJ1b0n-48" value="" style="endArrow=classic;html=1;rounded=0;exitX=0;exitY=0.5;exitDx=0;exitDy=0;entryX=1;entryY=0.5;entryDx=0;entryDy=0;" edge="1" parent="1" source="rKU_MBx8V3sZhzBJ1b0n-49" target="rKU_MBx8V3sZhzBJ1b0n-54">
          <mxGeometry width="50" height="50" relative="1" as="geometry">
            <mxPoint x="200" y="460" as="sourcePoint" />
            <mxPoint x="20" y="359" as="targetPoint" />
          </mxGeometry>
        </mxCell>
        <mxCell id="rKU_MBx8V3sZhzBJ1b0n-50" value="" style="endArrow=classic;html=1;rounded=0;entryX=1;entryY=0.5;entryDx=0;entryDy=0;" edge="1" parent="1" target="rKU_MBx8V3sZhzBJ1b0n-49">
          <mxGeometry width="50" height="50" relative="1" as="geometry">
            <mxPoint x="440" y="390" as="sourcePoint" />
            <mxPoint x="450" y="540" as="targetPoint" />
          </mxGeometry>
        </mxCell>
        <mxCell id="rKU_MBx8V3sZhzBJ1b0n-52" value="sonli" style="swimlane;whiteSpace=wrap;html=1;" vertex="1" parent="1">
          <mxGeometry x="110" y="230" width="650" height="600" as="geometry">
            <mxRectangle x="110" y="230" width="70" height="30" as="alternateBounds" />
          </mxGeometry>
        </mxCell>
        <mxCell id="rKU_MBx8V3sZhzBJ1b0n-60" value="lts" style="rounded=0;whiteSpace=wrap;html=1;" vertex="1" parent="rKU_MBx8V3sZhzBJ1b0n-52">
          <mxGeometry x="70" y="290" width="150" height="60" as="geometry" />
        </mxCell>
        <mxCell id="rKU_MBx8V3sZhzBJ1b0n-65" value="" style="edgeStyle=orthogonalEdgeStyle;rounded=0;orthogonalLoop=1;jettySize=auto;html=1;strokeColor=#3617FF;entryX=0;entryY=0.5;entryDx=0;entryDy=0;" edge="1" parent="rKU_MBx8V3sZhzBJ1b0n-52" source="rKU_MBx8V3sZhzBJ1b0n-61" target="rKU_MBx8V3sZhzBJ1b0n-69">
          <mxGeometry relative="1" as="geometry">
            <mxPoint x="350" y="160" as="targetPoint" />
            <Array as="points">
              <mxPoint x="380" y="410" />
              <mxPoint x="380" y="220" />
            </Array>
          </mxGeometry>
        </mxCell>
        <mxCell id="rKU_MBx8V3sZhzBJ1b0n-61" value="pc" style="rounded=0;whiteSpace=wrap;html=1;" vertex="1" parent="rKU_MBx8V3sZhzBJ1b0n-52">
          <mxGeometry x="70" y="380" width="150" height="60" as="geometry" />
        </mxCell>
        <mxCell id="rKU_MBx8V3sZhzBJ1b0n-63" value="&lt;div align=&quot;left&quot;&gt;1.定时删除订单与图片&lt;br&gt;2.场库心跳&lt;br&gt;3.上传剩余泊位&lt;br&gt;4.停车记录日核对&lt;br&gt;&lt;/div&gt;" style="text;html=1;strokeColor=none;fillColor=none;align=left;verticalAlign=middle;whiteSpace=wrap;rounded=0;" vertex="1" parent="rKU_MBx8V3sZhzBJ1b0n-52">
          <mxGeometry x="230" y="290" width="150" height="30" as="geometry" />
        </mxCell>
        <mxCell id="rKU_MBx8V3sZhzBJ1b0n-69" value="&lt;p class=&quot;project-title qa-project-name&quot;&gt;SearchEnginesPlatform&lt;br/&gt;&lt;/p&gt;" style="rounded=0;whiteSpace=wrap;html=1;" vertex="1" parent="rKU_MBx8V3sZhzBJ1b0n-52">
          <mxGeometry x="440" y="190" width="140" height="60" as="geometry" />
        </mxCell>
        <mxCell id="rKU_MBx8V3sZhzBJ1b0n-51" value="kafka" style="text;html=1;strokeColor=none;fillColor=none;align=center;verticalAlign=middle;whiteSpace=wrap;rounded=0;" vertex="1" parent="rKU_MBx8V3sZhzBJ1b0n-52">
          <mxGeometry x="210" y="170" width="140" height="30" as="geometry" />
        </mxCell>
        <mxCell id="rKU_MBx8V3sZhzBJ1b0n-53" value="青岛市平台" style="swimlane;whiteSpace=wrap;html=1;" vertex="1" parent="1">
          <mxGeometry x="-270" y="230" width="290" height="460" as="geometry" />
        </mxCell>
        <mxCell id="rKU_MBx8V3sZhzBJ1b0n-54" value="市平台收取数据" style="rounded=0;whiteSpace=wrap;html=1;" vertex="1" parent="rKU_MBx8V3sZhzBJ1b0n-53">
          <mxGeometry x="70" y="90" width="150" height="60" as="geometry" />
        </mxCell>
        <mxCell id="rKU_MBx8V3sZhzBJ1b0n-55" value="相机" style="swimlane;whiteSpace=wrap;html=1;" vertex="1" parent="1">
          <mxGeometry x="110" y="10" width="240" height="150" as="geometry" />
        </mxCell>
        <mxCell id="rKU_MBx8V3sZhzBJ1b0n-57" value="相机心跳/相机识别" style="rounded=0;whiteSpace=wrap;html=1;" vertex="1" parent="rKU_MBx8V3sZhzBJ1b0n-55">
          <mxGeometry x="60" y="60" width="120" height="60" as="geometry" />
        </mxCell>
        <mxCell id="rKU_MBx8V3sZhzBJ1b0n-59" value="" style="edgeStyle=orthogonalEdgeStyle;rounded=0;orthogonalLoop=1;jettySize=auto;html=1;entryX=0;entryY=0.5;entryDx=0;entryDy=0;exitX=0;exitY=0.5;exitDx=0;exitDy=0;" edge="1" parent="1" source="rKU_MBx8V3sZhzBJ1b0n-57" target="rKU_MBx8V3sZhzBJ1b0n-2">
          <mxGeometry relative="1" as="geometry">
            <mxPoint x="70" y="80" as="targetPoint" />
            <Array as="points">
              <mxPoint x="90" y="100" />
              <mxPoint x="90" y="359" />
            </Array>
          </mxGeometry>
        </mxCell>
        <mxCell id="rKU_MBx8V3sZhzBJ1b0n-62" value="" style="endArrow=classic;html=1;rounded=0;exitX=1;exitY=0.5;exitDx=0;exitDy=0;strokeColor=#0FFF77;" edge="1" parent="1" source="rKU_MBx8V3sZhzBJ1b0n-60">
          <mxGeometry width="50" height="50" relative="1" as="geometry">
            <mxPoint x="400" y="500" as="sourcePoint" />
            <mxPoint x="440" y="390" as="targetPoint" />
            <Array as="points">
              <mxPoint x="420" y="550" />
              <mxPoint x="440" y="550" />
            </Array>
          </mxGeometry>
        </mxCell>
        <mxCell id="rKU_MBx8V3sZhzBJ1b0n-67" value="页面查询" style="text;html=1;align=center;verticalAlign=middle;resizable=0;points=[];autosize=1;strokeColor=none;fillColor=none;" vertex="1" parent="1">
          <mxGeometry x="385" y="615" width="70" height="30" as="geometry" />
        </mxCell>
      </root>
    </mxGraphModel>
  </diagram>
</mxfile>
